# xmcd CD database file
#
# Track frame offsets:
#	150
#	27683
#	52950
#	67748
#	93318
#	112148
#	139375
#	169990
#	189788
#	203433
#	220015
#	239873
#
# Disc length: 3432 seconds
#
# Revision: 0
# Processed by: cddbd v1.5.1PL0 Copyright (c) Steve Scherf et al.
# Submitted via: CDex 1.51
#
DISCID=ad0d660c
DTITLE=Denis DiBlasio - Stormy Weather
DYEAR=1900
DGENRE=Jazz
TTITLE0=Latin Injection
TTITLE1=5 Pounds 10 Ounces
TTITLE2=All Blues
TTITLE3=Kathy's Samba
TTITLE4=Slap Happy
TTITLE5=Something Like Sonny
TTITLE6=Smokey
TTITLE7=Geisha
TTITLE8=Joe's Jump
TTITLE9=Stormy Weather
TTITLE10=Doin' It Right
TTITLE11=Holy Moley
EXTD=
EXTT0=
EXTT1=
EXTT2=
EXTT3=
EXTT4=
EXTT5=
EXTT6=
EXTT7=
EXTT8=
EXTT9=
EXTT10=
EXTT11=
PLAYORDER=
